<?xml version="1.0" standalone="no"?>
<!DOCTYPE svg PUBLIC "-//W3C//DTD SVG 20010904//EN"
 "http://www.w3.org/TR/2001/REC-SVG-20010904/DTD/svg10.dtd">
<svg version="1.0" xmlns="http://www.w3.org/2000/svg"
 width="1350.000000pt" height="1350.000000pt" viewBox="0 0 1350.000000 1350.000000"
 preserveAspectRatio="xMidYMid meet">
<metadata>
Created by potrace 1.10, written by Peter Selinger 2001-2011
</metadata>
<g transform="translate(0.000000,1350.000000) scale(0.100000,-0.100000)"
fill="#1c2e56" stroke="none">
<path d="M1558 8713 c-36 -5 -35 -18 3 -101 16 -37 34 -76 38 -87 5 -11 16
-38 26 -60 24 -54 154 -350 222 -505 30 -69 67 -152 82 -185 16 -33 61 -136
101 -230 40 -93 76 -177 80 -185 4 -8 14 -31 23 -50 8 -19 32 -71 52 -115 21
-44 72 -161 115 -260 80 -186 105 -244 145 -330 12 -27 33 -75 46 -105 12 -30
26 -59 30 -65 4 -5 20 -44 37 -85 16 -41 44 -105 61 -142 17 -37 42 -96 57
-130 14 -35 41 -94 59 -133 18 -38 51 -115 74 -170 23 -55 53 -124 67 -153 13
-29 24 -55 24 -57 0 -5 29 -69 85 -190 12 -27 33 -75 46 -105 12 -30 26 -59
30 -65 3 -5 39 -86 79 -179 40 -93 76 -177 80 -185 4 -9 18 -38 30 -66 41 -91
20 -85 311 -85 141 0 265 3 274 6 20 8 43 54 129 252 36 84 79 181 95 215 16
34 61 139 101 232 40 94 85 197 101 230 27 57 81 182 183 420 26 61 56 128 66
150 10 22 30 67 45 100 15 33 33 74 40 90 45 99 66 147 85 195 12 29 30 72 40
95 25 55 89 200 157 355 30 69 61 139 68 155 7 17 39 89 70 160 32 72 69 155
82 185 44 99 51 114 74 165 12 28 51 118 86 200 60 139 94 217 113 256 4 8 47
107 95 220 48 112 98 226 112 253 13 27 23 59 21 70 -3 21 -9 21 -261 24 -163
1 -265 -1 -277 -8 -20 -11 -28 -25 -86 -165 -21 -49 -41 -94 -45 -100 -4 -5
-26 -55 -49 -110 -23 -55 -55 -127 -70 -160 -16 -33 -56 -125 -90 -205 -35
-80 -66 -149 -70 -155 -3 -5 -28 -62 -55 -125 -27 -63 -52 -119 -56 -125 -4
-5 -33 -71 -64 -145 -32 -74 -80 -184 -107 -245 -27 -60 -58 -128 -68 -150
-31 -71 -122 -278 -152 -350 -17 -38 -48 -107 -69 -153 -21 -46 -39 -85 -39
-87 0 -3 -14 -35 -82 -184 -10 -24 -47 -107 -80 -185 -33 -78 -63 -145 -67
-151 -4 -5 -25 -50 -46 -100 -20 -49 -54 -126 -75 -170 -20 -44 -45 -102 -55
-130 -19 -52 -41 -85 -57 -85 -5 0 -16 17 -24 38 -17 40 -44 102 -74 167 -10
22 -57 130 -105 240 -48 110 -100 228 -116 263 -16 35 -29 65 -29 68 0 2 -17
41 -39 86 -21 46 -64 144 -95 218 -32 74 -63 149 -71 165 -32 74 -68 154 -87
195 -11 25 -63 144 -115 265 -52 121 -106 244 -120 275 -14 30 -31 69 -38 85
-7 17 -29 65 -49 107 -19 42 -47 105 -61 140 -14 35 -30 72 -35 83 -5 11 -25
58 -46 105 -47 108 -80 182 -109 245 -12 28 -62 142 -110 255 -48 113 -91 210
-95 215 -4 6 -10 22 -14 36 -4 18 -15 29 -31 33 -26 7 -509 5 -557 -1z"/>
<path d="M7282 8708 c-9 -9 -12 -469 -12 -2009 0 -1812 1 -1997 16 -2003 9 -3
131 -6 273 -6 187 0 260 3 269 12 9 9 12 139 12 523 l0 510 361 368 c198 202
366 367 373 367 14 0 54 -41 135 -140 30 -36 57 -67 61 -70 3 -3 33 -37 66
-76 76 -90 476 -554 495 -574 8 -8 52 -60 99 -115 46 -55 90 -106 96 -112 7
-7 141 -163 299 -347 159 -185 296 -337 308 -340 36 -9 611 -6 626 3 14 9 -86
139 -284 371 -60 70 -102 121 -315 381 -47 57 -164 198 -260 314 -96 116 -191
231 -210 255 -19 24 -51 63 -70 85 -55 65 -255 307 -364 440 -54 66 -108 132
-121 146 -74 84 -165 202 -165 212 0 15 16 33 220 247 86 91 172 181 191 201
60 64 370 390 489 514 142 148 585 616 698 737 46 49 81 95 79 101 -3 9 -85
13 -307 15 l-304 2 -100 -102 c-56 -57 -193 -197 -306 -313 -112 -115 -279
-286 -370 -380 -91 -93 -307 -316 -480 -495 -173 -179 -389 -401 -481 -495
-92 -93 -227 -232 -300 -307 -72 -76 -138 -138 -145 -138 -12 0 -14 178 -14
1105 l0 1105 -26 10 c-38 15 -517 13 -532 -2z"/>
<path d="M6034 5425 c-102 -32 -186 -101 -235 -194 -39 -73 -56 -176 -40 -248
30 -137 97 -228 209 -284 64 -32 72 -34 172 -33 88 1 113 4 155 24 56 26 152
117 179 170 60 118 59 268 -2 386 -21 40 -97 118 -143 146 -72 44 -210 60
-295 33z"/>
<path d="M11220 5426 c-102 -29 -188 -100 -242 -200 -31 -59 -33 -65 -33 -176
0 -106 2 -120 28 -171 30 -62 51 -87 117 -140 69 -56 129 -74 240 -74 84 0
102 3 153 28 74 37 146 108 182 183 27 55 29 68 29 174 0 104 -2 121 -26 171
-30 63 -105 146 -158 173 -86 44 -200 57 -290 32z"/>
</g>
</svg>
