<?xml version="1.0" standalone="no"?>
<!DOCTYPE svg PUBLIC "-//W3C//DTD SVG 20010904//EN"
 "http://www.w3.org/TR/2001/REC-SVG-20010904/DTD/svg10.dtd">
<svg version="1.0" xmlns="http://www.w3.org/2000/svg"
 width="16.000000pt" height="16.000000pt" viewBox="0 0 16.000000 16.000000"
 preserveAspectRatio="xMidYMid meet">
<metadata>
Created by potrace 1.16, written by Peter Selinger 2001-2019
</metadata>
<g transform="translate(0.000000,16.000000) scale(0.001126,-0.001044)"
fill="#000000" stroke="none">
<path d="M5490 12360 l0 -900 -556 0 c-441 0 -555 -3 -551 -12 6 -18 122 -371
485 -1478 171 -520 547 -1667 837 -2550 646 -1966 727 -2216 750 -2307 20 -76
29 -83 40 -30 4 17 49 161 101 320 52 158 94 292 94 298 0 6 -385 1183 -855
2615 -676 2058 -855 2614 -855 2654 l0 50 570 0 570 0 0 853 0 852 -268 268
-268 267 -47 0 -47 0 0 -900z"/>
<path d="M12190 12360 l0 -900 -541 -2 -542 -3 -464 -1315 c-476 -1348 -1956
-5536 -2333 -6600 -116 -327 -304 -859 -418 -1182 l-207 -588 -1012 0 c-557 0
-1013 -3 -1013 -7 0 -5 96 -104 213 -221 l213 -212 1114 2 1113 3 1711 4840
1711 4840 543 3 542 2 0 850 0 850 -271 270 -270 270 -45 0 -44 0 0 -900z"/>
<path d="M1100 12405 l0 -625 181 0 181 0 -59 43 c-67 50 -125 115 -172 192
-66 108 -90 389 -52 606 20 116 20 117 71 172 125 138 156 167 212 200 l63 37
-213 0 -212 0 0 -625z"/>
<path d="M2238 12991 c81 -53 132 -101 178 -166 20 -30 43 -55 49 -55 15 0 60
-98 74 -160 6 -25 11 -100 11 -166 0 -194 -46 -326 -167 -476 -56 -71 -148
-146 -227 -188 -37 -20 -45 -29 -40 -45 4 -11 63 -180 131 -375 69 -195 131
-371 138 -390 12 -34 12 -32 24 58 21 163 79 287 186 396 78 79 170 138 270
172 69 24 100 28 232 32 117 3 168 1 225 -12 248 -55 452 -250 513 -491 30
-117 15 -294 -35 -427 -53 -142 -208 -321 -350 -406 -157 -94 -358 -132 -511
-98 -112 25 -234 87 -311 159 -16 15 -28 23 -28 18 0 -6 219 -626 794 -2251
107 -300 344 -970 527 -1490 l334 -945 7 77 c9 97 22 145 63 235 83 181 208
301 387 373 107 42 186 53 366 48 144 -4 164 -7 239 -35 113 -41 185 -86 268
-168 135 -132 202 -287 212 -491 5 -91 3 -118 -11 -144 -9 -18 -16 -39 -16
-45 0 -20 -80 -174 -122 -238 -171 -253 -478 -431 -713 -414 -44 4 -107 14
-140 22 -90 24 -214 89 -278 146 l-57 50 14 -38 c28 -78 917 -2596 982 -2781
l67 -192 951 0 951 0 63 183 c72 207 597 1696 824 2337 83 234 203 576 268
760 160 455 693 1961 774 2188 36 101 66 186 66 190 0 3 -37 -31 -82 -77 -97
-97 -206 -171 -343 -232 l-100 -44 -120 1 c-106 1 -131 5 -215 32 -240 79
-418 270 -480 516 -29 114 -26 164 19 317 55 186 129 398 152 436 27 44 151
136 230 171 100 45 200 62 363 62 213 0 328 -36 482 -152 129 -97 236 -275
265 -443 8 -49 14 -64 19 -50 26 72 176 496 415 1170 476 1343 611 1722 709
1999 53 149 96 273 96 277 0 4 -14 12 -31 18 -54 19 -167 100 -221 161 -68 75
-123 177 -148 276 -40 154 -22 424 35 534 34 66 195 230 267 273 l63 37 -985
0 -985 0 52 -30 c65 -37 160 -125 193 -178 14 -22 35 -45 47 -51 25 -11 58
-92 80 -196 24 -114 2 -315 -47 -429 -48 -112 -152 -240 -264 -323 l-58 -43
91 0 91 0 0 -52 c0 -55 -4 -68 -340 -1098 -89 -272 -188 -576 -220 -675 -89
-274 -504 -1544 -765 -2345 -645 -1975 -860 -2642 -891 -2767 -55 -219 -95
-456 -129 -776 l-6 -57 -184 0 -184 0 -5 33 c-3 17 -12 100 -21 182 -27 251
-87 573 -145 785 -62 223 -1039 3177 -1040 3141 0 -41 -58 -181 -114 -274 -98
-164 -280 -332 -444 -409 -166 -79 -242 -92 -386 -68 -134 22 -294 107 -393
211 -87 91 -123 148 -169 269 -28 74 -29 79 -29 275 0 193 1 203 28 280 42
118 107 223 186 298 136 128 263 182 468 198 281 23 464 -37 645 -209 l47 -45
-35 109 c-20 60 -96 291 -169 514 -644 1958 -775 2368 -775 2423 l0 56 55 3
56 3 -55 42 c-100 78 -185 214 -223 356 -21 77 -23 314 -4 402 18 83 60 185
77 185 7 0 26 19 43 43 40 58 125 138 191 181 l55 36 -979 0 -979 0 61 -39z
m7619 -1376 c184 -43 361 -184 449 -356 90 -178 86 -430 -10 -624 -80 -161
-202 -285 -364 -369 -369 -190 -771 -63 -952 302 -44 89 -56 164 -42 263 19
141 32 275 32 335 0 81 43 157 150 265 92 93 177 144 302 180 83 23 343 26
435 4z m-1778 -5215 c130 -32 231 -89 331 -190 134 -135 201 -285 216 -480 6
-77 4 -96 -20 -168 -58 -178 -122 -287 -242 -408 -99 -100 -204 -171 -319
-217 -132 -52 -173 -60 -283 -54 -118 6 -223 38 -325 98 -76 45 -220 180 -231
217 -4 12 -11 22 -15 22 -19 0 -32 62 -30 137 1 43 -3 112 -9 153 -43 283 32
513 220 684 54 49 79 80 89 108 7 22 22 46 33 53 33 21 147 55 217 65 96 13
272 4 368 -20z m-1425 -2665 c233 -49 420 -221 502 -460 25 -71 28 -94 27
-205 0 -109 -4 -136 -28 -210 -15 -47 -40 -110 -56 -141 -66 -132 -217 -283
-351 -350 -105 -53 -198 -73 -343 -73 -115 0 -139 3 -210 27 -149 49 -301 173
-375 304 -61 107 -83 194 -88 349 -5 160 6 246 45 344 80 200 255 355 465 410
92 24 310 27 412 5z"/>
<path d="M4856 12992 c70 -46 141 -113 179 -170 15 -23 36 -44 46 -47 21 -7
54 -65 75 -130 11 -35 13 -14 13 173 l1 212 -187 0 -186 0 59 -38z"/>
<path d="M7796 13022 c-2 -4 -4 -284 -3 -622 l2 -615 140 -2 140 -3 -45 38
c-96 80 -138 136 -150 199 -4 26 -21 80 -37 118 -27 68 -28 75 -28 255 l0 185
34 95 c50 138 149 258 276 331 l50 29 -187 0 c-103 0 -189 -3 -192 -8z"/>
<path d="M11525 12979 c68 -46 157 -136 185 -189 6 -11 17 -20 24 -20 17 0 59
-97 76 -172 8 -37 11 -100 8 -184 -7 -186 -46 -291 -162 -443 -35 -47 -140
-139 -202 -178 -15 -9 25 -12 194 -12 l212 -1 0 625 0 625 -206 0 -206 0 77
-51z"/>
<path d="M5143 12206 c-42 -134 -151 -280 -284 -381 l-61 -45 181 0 c138 0
183 3 187 13 2 7 3 119 2 249 l-3 236 -22 -72z"/>
<path d="M1221 11403 c30 -32 127 -131 217 -220 l163 -163 194 0 c107 0 195 4
195 8 0 4 -23 71 -50 147 -28 77 -62 173 -76 213 l-26 72 -335 0 -336 0 54
-57z"/>
<path d="M8077 11240 l220 -220 64 0 64 0 69 208 c38 114 71 213 73 220 4 9
-71 12 -352 12 l-357 0 219 -220z"/>
</g>
</svg>
